<?xml version="1.0" encoding="UTF-8" standalone="no"?>
<!-- Created with Inkscape (http://www.inkscape.org/) -->

<svg
   xmlns:dc="http://purl.org/dc/elements/1.1/"
   xmlns:cc="http://creativecommons.org/ns#"
   xmlns:rdf="http://www.w3.org/1999/02/22-rdf-syntax-ns#"
   xmlns:svg="http://www.w3.org/2000/svg"
   xmlns="http://www.w3.org/2000/svg"
   xmlns:sodipodi="http://sodipodi.sourceforge.net/DTD/sodipodi-0.dtd"
   xmlns:inkscape="http://www.inkscape.org/namespaces/inkscape"
   width="170mm"
   height="98.880997mm"
   viewBox="0 0 170 98.880997"
   version="1.1"
   id="svg8"
   inkscape:version="0.92.1 r"
   sodipodi:docname="parsys-new.svg"
   inkscape:export-filename="/home/comzeradd/Downloads/parsys.png"
   inkscape:export-xdpi="99.924156"
   inkscape:export-ydpi="99.924156">
  <defs
     id="defs2" />
  <sodipodi:namedview
     id="base"
     pagecolor="#ffffff"
     bordercolor="#666666"
     borderopacity="1.0"
     inkscape:pageopacity="1"
     inkscape:pageshadow="2"
     inkscape:zoom="1"
     inkscape:cx="315.10542"
     inkscape:cy="289.2909"
     inkscape:document-units="mm"
     inkscape:current-layer="layer1"
     showgrid="false"
     showguides="true"
     inkscape:guide-bbox="true"
     inkscape:window-width="1920"
     inkscape:window-height="1016"
     inkscape:window-x="0"
     inkscape:window-y="27"
     inkscape:window-maximized="1">
    <inkscape:grid
       type="xygrid"
       id="grid5388" />
  </sodipodi:namedview>
  <metadata
     id="metadata5">
    <rdf:RDF>
      <cc:Work
         rdf:about="">
        <dc:format>image/svg+xml</dc:format>
        <dc:type
           rdf:resource="http://purl.org/dc/dcmitype/StillImage" />
        <dc:title></dc:title>
      </cc:Work>
    </rdf:RDF>
  </metadata>
  <g
     inkscape:label="Layer 1"
     inkscape:groupmode="layer"
     id="layer1"
     transform="translate(0,-198.119)">
    <g
       id="g5464"
       transform="matrix(0.99495079,0,0,0.99495079,-10.726353,122.15451)">
      <g
         transform="translate(0,-3.2137898)"
         id="g5434">
        <rect
           style="opacity:1;fill:#538296;fill-opacity:1;stroke:none;stroke-width:1.12159872;stroke-miterlimit:4;stroke-dasharray:none;stroke-opacity:1"
           id="rect5384"
           width="170.86345"
           height="33.767288"
           x="10.780787"
           y="109.7794" />
        <text
           xml:space="preserve"
           style="font-style:normal;font-weight:normal;font-size:27.68536949px;line-height:13.84268475px;font-family:sans-serif;letter-spacing:0px;word-spacing:0px;fill:#ffffff;fill-opacity:1;stroke:none;stroke-width:0.6921342px;stroke-linecap:butt;stroke-linejoin:miter;stroke-opacity:1"
           x="16.374641"
           y="132.72615"
           id="text4491"><tspan
             sodipodi:role="line"
             x="16.374641"
             y="132.72615"
             style="font-style:normal;font-variant:normal;font-weight:normal;font-stretch:normal;line-height:26.99323654px;font-family:'Zilla Slab';-inkscape-font-specification:'Zilla Slab';fill:#ffffff;stroke-width:0.6921342px"
             id="tspan4493">participation</tspan></text>
      </g>
      <g
         id="g5429">
        <rect
           id="rect4"
           height="28.583"
           width="99.999153"
           y="76.349998"
           x="10.780787"
           style="stroke-width:0.27563164" />
        <path
           inkscape:connector-curvature="0"
           style="fill:#ffffff;stroke-width:0.27563164"
           id="path6"
           d="m 106.31453,96.856993 c -0.19294,0.05513 -0.35832,0.08269 -0.5237,0.08269 -0.57883,0 -0.85446,-0.248069 -0.85446,-0.964711 v -5.429943 c 0,-2.866569 -2.28774,-4.244727 -4.961367,-4.244727 -2.039661,0 -3.169742,0.248068 -5.34722,1.130089 l -0.496137,2.866569 2.866552,0.303195 0.413447,-1.405721 c 0.578817,-0.303195 1.157644,-0.358321 1.901841,-0.358321 2.012104,0 2.039674,1.515974 2.039674,2.811442 v 0.413448 c -0.63396,-0.08269 -1.3506,-0.110253 -2.039674,-0.110253 -2.866555,0 -5.815787,0.716643 -5.815787,3.803717 0,2.6185 2.039658,3.583211 3.858816,3.583211 2.012101,0 3.307565,-1.212779 4.024205,-2.508248 0.16538,1.515974 1.07496,2.508248 2.75632,2.508248 0.77177,0 1.5711,-0.220505 2.26018,-0.578826 z m -7.690121,-0.08269 c -1.074954,0 -1.460831,-0.633953 -1.460831,-1.433285 0,-1.350595 1.102514,-1.708916 2.397975,-1.708916 0.578827,0 1.212777,0.08269 1.791607,0.165379 -0.11025,2.067238 -1.460847,2.976822 -2.728751,2.976822 z m -4.795963,-16.785967 -5.40235,19.07371 h -3.528059 l 5.40235,-19.07371 z m -7.276628,0 -5.40235,19.07371 h -3.528069 l 5.40235,-19.07371 z m -15.021846,6.560033 h 3.748569 v 4.492796 h -3.748569 z m 0,8.020881 h 3.748569 v 4.492796 h -3.748569 z m -5.457478,-0.165379 2.838993,0.275631 -0.771754,4.382544 H 57.197155 l -0.358321,-1.874296 6.890791,-7.910628 h -3.913969 l -0.551264,1.929422 -2.590937,-0.275632 0.44101,-4.382543 h 10.997698 l 0.275627,1.874295 -6.945908,7.910628 h 4.051785 z m -17.916057,-8.10357 c -4.492796,0 -6.725412,3.031948 -6.725412,6.697848 0,3.996659 2.673627,6.339528 6.53247,6.339528 3.996659,0 6.890791,-2.535811 6.890791,-6.53247 -0.02756,-3.472958 -2.205053,-6.504906 -6.697849,-6.504906 z m -0.08269,10.28106 c -1.929422,0 -2.949259,-1.65379 -2.949259,-3.83128 0,-2.370432 1.13009,-3.721027 2.976822,-3.721027 1.681353,0 3.059511,1.13009 3.059511,3.665901 -0.02756,2.397995 -1.240342,3.886406 -3.087074,3.886406 z m -9.867613,-0.248069 h 1.65379 v 2.728754 h -5.237001 v -7.05617 c 0,-2.17749 -0.716643,-3.004385 -2.122364,-3.004385 -1.708916,0 -2.425558,1.212779 -2.425558,2.976821 v 4.35498 h 1.653789 v 2.728754 h -5.237001 v -7.05617 c 0,-2.17749 -0.716642,-3.004385 -2.149927,-3.004385 -1.708916,0 -2.425558,1.212779 -2.425558,2.976821 v 4.35498 h 2.397995 v 2.728754 h -7.607433 v -2.728754 h 1.65379 V 89.24956 h -1.65379 v -2.728753 h 5.237001 v 1.874295 c 0.744206,-1.323032 2.039674,-2.122364 3.803717,-2.122364 1.791605,0 3.472958,0.854459 4.079348,2.701191 0.689079,-1.65379 2.094801,-2.701191 4.079348,-2.701191 2.26018,0 4.299854,1.350595 4.299854,4.327417 z"
           class="st0" />
      </g>
      <rect
         y="141.96552"
         x="10.780787"
         height="33.767288"
         width="170.86345"
         id="rect5384-9"
         style="opacity:1;fill:#538296;fill-opacity:1;stroke:none;stroke-width:1.12159872;stroke-miterlimit:4;stroke-dasharray:none;stroke-opacity:1" />
      <text
         id="text4491-2"
         y="164.04016"
         x="15.571766"
         style="font-style:normal;font-weight:normal;font-size:27.68536949px;line-height:13.84268475px;font-family:sans-serif;letter-spacing:0px;word-spacing:0px;fill:#ffffff;fill-opacity:1;stroke:none;stroke-width:0.6921342px;stroke-linecap:butt;stroke-linejoin:miter;stroke-opacity:1"
         xml:space="preserve"><tspan
           id="tspan4493-8"
           style="font-style:normal;font-variant:normal;font-weight:normal;font-stretch:normal;line-height:26.99323654px;font-family:'Zilla Slab';-inkscape-font-specification:'Zilla Slab';fill:#ffffff;stroke-width:0.6921342px"
           y="164.04016"
           x="15.571766"
           sodipodi:role="line">systems</tspan></text>
      <g
         style="fill:#eecf7f;fill-opacity:1"
         id="g4810"
         transform="matrix(1.6567084,0,0,1.6567084,116.16632,-1566.0649)">
        <path
           id="path4808"
           transform="translate(0,1020.3622)"
           d="m 21.982422,5 a 0.50004997,0.50004997 0 0 0 -0.5,0.5 v 1.0234375 c -0.196651,0.067 -0.387911,0.1446281 -0.574219,0.2363281 L 20.185547,6.0371094 a 0.50004997,0.50004997 0 0 0 -0.707031,0 l -1.441407,1.4414062 a 0.50004997,0.50004997 0 0 0 0,0.7070313 l 0.722657,0.7226562 c -0.09173,0.1862 -0.169569,0.3776188 -0.236328,0.5742188 H 17.5 a 0.50004997,0.50004997 0 0 0 -0.5,0.5 v 2.0371091 a 0.50004997,0.50004997 0 0 0 0.5,0.5 h 1.021484 c 0.06674,0.1966 0.144588,0.387919 0.236328,0.574219 l -0.720703,0.722656 a 0.50004997,0.50004997 0 0 0 0,0.707032 l 1.441407,1.441406 a 0.50004997,0.50004997 0 0 0 0.707031,0 l 0.722656,-0.722656 c 0.18665,0.092 0.377186,0.171481 0.574219,0.238281 V 16.5 a 0.50004997,0.50004997 0 0 0 0.5,0.5 h 2.035156 a 0.50004997,0.50004997 0 0 0 0.5,-0.5 v -1.021484 c 0.196653,-0.067 0.387912,-0.144529 0.574219,-0.236328 l 0.722656,0.722656 a 0.50004997,0.50004997 0 0 0 0.707031,0 l 1.441407,-1.441406 a 0.50004997,0.50004997 0 0 0 0,-0.707032 L 27.240234,13.09375 c 0.09189,-0.1864 0.169466,-0.377519 0.236328,-0.574219 H 28.5 a 0.50004997,0.50004997 0 0 0 0.5,-0.5 V 9.9824219 a 0.50004997,0.50004997 0 0 0 -0.5,-0.5 h -1.021484 c -0.06674,-0.1967 -0.144589,-0.3879188 -0.236328,-0.5742188 l 0.720703,-0.7226562 a 0.50004997,0.50004997 0 0 0 0,-0.7070313 L 26.521484,6.0371094 a 0.50004997,0.50004997 0 0 0 -0.707031,0 l -0.722656,0.7226562 c -0.18665,-0.092 -0.377186,-0.1714812 -0.574219,-0.2382812 V 5.5 a 0.50004997,0.50004997 0 0 0 -0.5,-0.5 z m 0.5,1 h 1.035156 v 0.8515625 a 0.50004997,0.50004997 0 0 0 0.38086,0.484375 c 0.371946,0.091 0.729003,0.2391 1.05664,0.4375 a 0.50004997,0.50004997 0 0 0 0.611328,-0.074219 l 0.601563,-0.6015626 0.734375,0.734375 -0.59961,0.6015626 a 0.50004997,0.50004997 0 0 0 -0.07422,0.6113281 c 0.198426,0.3279 0.344266,0.6844406 0.435546,1.0566404 a 0.50004997,0.50004997 0 0 0 0.486329,0.38086 H 28 v 1.037109 h -0.849609 a 0.50004997,0.50004997 0 0 0 -0.486329,0.38086 c -0.09135,0.372 -0.239139,0.727087 -0.4375,1.054687 a 0.50004997,0.50004997 0 0 0 0.07422,0.613281 l 0.601563,0.601563 -0.734375,0.734375 -0.59961,-0.601563 a 0.50004997,0.50004997 0 0 0 -0.613281,-0.07422 c -0.32785,0.1985 -0.684447,0.3462 -1.05664,0.4375 a 0.50004997,0.50004997 0 0 0 -0.38086,0.486328 V 16 h -1.035156 v -0.849609 a 0.50004997,0.50004997 0 0 0 -0.38086,-0.486329 c -0.371946,-0.091 -0.729003,-0.237146 -1.05664,-0.435546 a 0.50004997,0.50004997 0 0 0 -0.611328,0.07422 l -0.601563,0.601563 -0.734375,-0.734375 0.59961,-0.601563 a 0.50004997,0.50004997 0 0 0 0.07422,-0.611328 c -0.198426,-0.3279 -0.344267,-0.68444 -0.435546,-1.05664 a 0.50004997,0.50004997 0 0 0 -0.486329,-0.38086 H 18 v -1.037109 h 0.849609 a 0.50004997,0.50004997 0 0 0 0.486329,-0.38086 c 0.09135,-0.3719995 0.239139,-0.727087 0.4375,-1.054687 a 0.50004997,0.50004997 0 0 0 -0.07422,-0.6132812 l -0.601563,-0.6015626 0.734375,-0.734375 0.59961,0.6015626 a 0.50004997,0.50004997 0 0 0 0.613281,0.074219 c 0.327855,-0.1984 0.682498,-0.3463 1.054687,-0.4375 A 0.50004997,0.50004997 0 0 0 22.482422,6.8496094 Z M 23,8.2597656 C 21.492228,8.2597656 20.259722,9.4923 20.259766,11 20.25979,12.5078 21.492275,13.742188 23,13.742188 24.507725,13.742188 25.74021,12.5078 25.740234,11 25.740278,9.4923 24.507772,8.2597656 23,8.2597656 Z m 0,1 C 23.967321,9.2597656 24.740262,10.0327 24.740234,11 24.740219,11.9673 23.96729,12.742188 23,12.742188 22.03271,12.742188 21.259781,11.9673 21.259766,11 21.259738,10.0327 22.032679,9.2597656 23,9.2597656 Z M 9.6113281,11.5 a 0.50005,0.50005 0 0 0 -0.5,0.5 v 1.513672 c -0.3483448,0.11 -0.6855467,0.247715 -1.0097656,0.416016 l -1.0683594,-1.06836 a 0.50005,0.50005 0 0 0 -0.7070312,0 l -1.9648438,1.964844 a 0.50005,0.50005 0 0 0 0,0.707031 l 1.0683594,1.070313 c -0.1681409,0.3238 -0.3060205,0.659912 -0.4160156,1.007812 H 3.5 a 0.50005,0.50005 0 0 0 -0.5,0.5 v 2.779297 a 0.50005,0.50005 0 0 0 0.5,0.5 h 1.5136719 c 0.1101438,0.3486 0.2474692,0.685266 0.4160156,1.009766 L 4.3613281,23.46875 a 0.50005,0.50005 0 0 0 0,0.707031 l 1.9648438,1.964844 a 0.50005,0.50005 0 0 0 0.7070312,0 l 1.0703125,-1.070313 c 0.3237813,0.168201 0.6599535,0.306016 1.0078125,0.416016 V 27 a 0.50005,0.50005 0 0 0 0.5,0.5 h 2.7773439 a 0.50005,0.50005 0 0 0 0.5,-0.5 v -1.511719 c 0.348345,-0.11 0.685546,-0.247715 1.009766,-0.416015 l 1.068359,1.068359 a 0.50005,0.50005 0 0 0 0.707031,0 l 1.964844,-1.964844 a 0.50005,0.50005 0 0 0 0,-0.707031 l -1.06836,-1.070312 c 0.168141,-0.3238 0.306021,-0.660013 0.416016,-1.007813 H 18.5 a 0.50005,0.50005 0 0 0 0.5,-0.5 v -2.779297 a 0.50005,0.50005 0 0 0 -0.5,-0.5 h -1.513672 c -0.11014,-0.3487 -0.247466,-0.685266 -0.416016,-1.009766 l 1.06836,-1.068359 a 0.50005,0.50005 0 0 0 0,-0.707031 l -1.964844,-1.964844 a 0.50005,0.50005 0 0 0 -0.707031,0 l -1.070313,1.070313 c -0.323781,-0.1682 -0.659953,-0.306116 -1.007812,-0.416016 V 12 a 0.50005,0.50005 0 0 0 -0.5,-0.5 z m 0.4999999,1 h 1.777344 v 1.341797 a 0.50005,0.50005 0 0 0 0.380859,0.486328 c 0.525102,0.1289 1.027691,0.337188 1.490235,0.617187 a 0.50005,0.50005 0 0 0 0.613281,-0.07422 l 0.947265,-0.949219 1.257813,1.257813 -0.947266,0.947265 a 0.50005,0.50005 0 0 0 -0.07422,0.613281 c 0.280129,0.4628 0.488321,0.964735 0.617187,1.490235 a 0.50005,0.50005 0 0 0 0.486328,0.380859 H 18 v 1.779297 h -1.341797 a 0.50005,0.50005 0 0 0 -0.484375,0.380859 c -0.128963,0.5251 -0.337152,1.025682 -0.617187,1.488282 a 0.50005,0.50005 0 0 0 0.07422,0.613281 l 0.947266,0.949219 -1.257813,1.257812 -0.947265,-0.947266 a 0.50005,0.50005 0 0 0 -0.611328,-0.07422 c -0.462851,0.2801 -0.966742,0.488287 -1.492188,0.617187 a 0.50005,0.50005 0 0 0 -0.380859,0.484375 V 26.5 H 10.111328 V 25.160156 A 0.50005,0.50005 0 0 0 9.7304688,24.673828 c -0.5251021,-0.129 -1.0276906,-0.337187 -1.4902344,-0.617187 a 0.50005,0.50005 0 0 0 -0.6132813,0.07422 L 6.6796875,25.080078 5.421875,23.822266 6.3691406,22.875 a 0.50005,0.50005 0 0 0 0.074219,-0.613281 C 6.1632386,21.798919 5.9550469,21.296884 5.8261719,20.771484 A 0.50005,0.50005 0 0 0 5.3398438,20.390625 H 4 v -1.779297 h 1.3417969 a 0.50005,0.50005 0 0 0 0.484375,-0.380859 c 0.1289627,-0.5251 0.3371518,-1.027735 0.6171875,-1.490235 A 0.50005,0.50005 0 0 0 6.3691406,16.128906 L 5.421875,15.179688 6.6796875,13.921875 7.6269531,14.869141 a 0.50005,0.50005 0 0 0 0.6113281,0.07422 c 0.4628514,-0.2801 0.9667419,-0.488287 1.4921876,-0.617187 A 0.50005,0.50005 0 0 0 10.111328,13.841797 Z M 11,15.945312 C 9.042227,15.945312 7.4452793,17.5423 7.4453125,19.5 7.4453434,21.4578 9.0422718,23.056641 11,23.056641 12.957728,23.056641 14.554656,21.4578 14.554688,19.5 14.554721,17.5423 12.957773,15.945312 11,15.945312 Z m 0,1 c 1.417325,0 2.554712,1.137388 2.554688,2.554688 C 13.554664,20.9173 12.417292,22.056641 11,22.056641 9.5827076,22.056641 8.4453349,20.9173 8.4453125,19.5 8.4452885,18.0827 9.5826744,16.945312 11,16.945312 Z"
           style="color:#000000;font-style:normal;font-variant:normal;font-weight:normal;font-stretch:normal;font-size:medium;line-height:normal;font-family:sans-serif;text-indent:0;text-align:start;text-decoration:none;text-decoration-line:none;text-decoration-style:solid;text-decoration-color:#000000;letter-spacing:normal;word-spacing:normal;text-transform:none;writing-mode:lr-tb;direction:ltr;baseline-shift:baseline;text-anchor:start;white-space:normal;clip-rule:nonzero;display:inline;overflow:visible;visibility:visible;opacity:1;isolation:auto;mix-blend-mode:normal;color-interpolation:sRGB;color-interpolation-filters:linearRGB;solid-color:#000000;solid-opacity:1;fill:#eecf7f;fill-opacity:1;fill-rule:nonzero;stroke:none;stroke-width:1;stroke-linecap:round;stroke-linejoin:round;stroke-miterlimit:4;stroke-dasharray:none;stroke-dashoffset:1.39999998;stroke-opacity:1;color-rendering:auto;image-rendering:auto;shape-rendering:auto;text-rendering:auto;enable-background:accumulate"
           inkscape:connector-curvature="0" />
      </g>
    </g>
  </g>
  <style
     type="text/css"
     id="style2">
	.st0{fill:#FFFFFF;}
</style>
</svg>
